<svg width="14" height="24" viewBox="0 0 14 24" fill="none" xmlns="http://www.w3.org/2000/svg">
<path d="M13.2054 17.5212L8.16361 12L13.2054 6.47941C13.3637 6.30555 13.4445 6.0739 13.4276 5.83901C13.4107 5.60388 13.2984 5.38591 13.1163 5.23643L6.98738 0.195911C6.7305 -0.0154485 6.37533 -0.0598392 6.07463 0.0825203C5.77392 0.22427 5.5823 0.526708 5.5823 0.859239V9.1736L2.06391 5.32043C1.74426 4.97018 1.20042 4.94552 0.85017 5.26544C0.499919 5.58537 0.475263 6.12865 0.795185 6.47918L5.5823 11.7217V12.2784L0.795232 17.5212C0.475028 17.8711 0.499685 18.4147 0.850216 18.7349C1.20075 19.0551 1.74408 19.0304 2.06395 18.6796L5.58207 14.827V23.1408C5.58207 23.473 5.77397 23.7757 6.07439 23.9178C6.19125 23.9728 6.31669 24 6.44128 24C6.63689 24 6.83049 23.9336 6.98743 23.8047L13.1163 18.7641C13.2984 18.6143 13.4107 18.3964 13.4276 18.1615C13.4445 17.9267 13.3643 17.695 13.2054 17.5212ZM7.30069 2.67837L11.326 5.98854L7.30069 10.3968V2.67837ZM7.30069 21.3216V13.6035L11.326 18.0115L7.30069 21.3216Z" fill="black"/>
</svg>
