<svg width="44" height="54" viewBox="0 0 44 54" fill="none" xmlns="http://www.w3.org/2000/svg">
<g clip-path="url(#clip0_3_969)">
<path d="M22 0C14.3478 0 0 5.68421 0 21.7895C0 37.8947 22 54 22 54C22 54 44 37.8947 44 21.7895C44 5.68421 29.6522 0 22 0Z" fill="#E01F3D"/>
<g clip-path="url(#clip1_3_969)">
<path d="M22 25.0104C23.9106 25.0104 25.4737 23.4757 25.4737 21.5999C25.4737 19.7241 23.9106 18.1893 22 18.1893C20.0895 18.1893 18.5264 19.7241 18.5264 21.5999C18.5264 23.4757 20.0895 25.0104 22 25.0104ZM22 10.2314C20.8421 10.2314 19.6264 10.402 18.5264 10.743V17.0525C21.0737 15.1767 24.7211 15.6883 26.6316 18.1893C28.5421 20.6904 28.0211 24.2714 25.4737 26.1472C22.9264 28.023 19.279 27.5114 17.3685 25.0104C16.6158 24.0441 16.2106 22.8504 16.2106 21.5999V11.7662C10.6527 14.8925 8.80004 21.8272 11.9843 27.2841C15.1685 32.7409 22.2316 34.5599 27.7895 31.4335C33.3474 28.3072 35.2 21.3725 32.0158 15.9157C29.9895 12.3914 26.1685 10.2314 22 10.2314Z" fill="white"/>
</g>
</g>
<defs>
<clipPath id="clip0_3_969">
<rect width="44" height="54" fill="white"/>
</clipPath>
<clipPath id="clip1_3_969">
<rect width="23.1579" height="22.7368" fill="white" transform="translate(10.4211 10.2314)"/>
</clipPath>
</defs>
</svg>
